<?xml version="1.0" encoding="UTF-8" standalone="no"?>
<svg
   xmlns:dc="http://purl.org/dc/elements/1.1/"
   xmlns:cc="http://creativecommons.org/ns#"
   xmlns:rdf="http://www.w3.org/1999/02/22-rdf-syntax-ns#"
   xmlns:svg="http://www.w3.org/2000/svg"
   xmlns="http://www.w3.org/2000/svg"
   xmlns:sodipodi="http://sodipodi.sourceforge.net/DTD/sodipodi-0.dtd"
   xmlns:inkscape="http://www.inkscape.org/namespaces/inkscape"
   width="211.35938"
   height="40.394531"
   overflow="hidden"
   version="1.1"
   id="svg839"
   sodipodi:docname="Picture1.svg"
   style="overflow:hidden"
   inkscape:version="0.92.4 (5da689c313, 2019-01-14)">
  <metadata
     id="metadata843">
    <rdf:RDF>
      <cc:Work
         rdf:about="">
        <dc:format>image/svg+xml</dc:format>
        <dc:type
           rdf:resource="http://purl.org/dc/dcmitype/StillImage" />
        <dc:title></dc:title>
      </cc:Work>
    </rdf:RDF>
  </metadata>
  <sodipodi:namedview
     pagecolor="#ffffff"
     bordercolor="#666666"
     borderopacity="1"
     objecttolerance="10"
     gridtolerance="10"
     guidetolerance="10"
     inkscape:pageopacity="0"
     inkscape:pageshadow="2"
     inkscape:window-width="640"
     inkscape:window-height="480"
     id="namedview841"
     showgrid="false"
     fit-margin-top="0"
     fit-margin-left="0"
     fit-margin-right="0"
     fit-margin-bottom="0"
     inkscape:zoom="3.7688889"
     inkscape:cx="72.727364"
     inkscape:cy="-20.691406"
     inkscape:current-layer="svg839" />
  <defs
     id="defs833">
    <clipPath
       id="clip0">
      <rect
         x="264"
         y="174"
         width="315"
         height="225"
         id="rect830" />
    </clipPath>
  </defs>
  <g
     clip-path="url(#clip0)"
     transform="translate(-310.40503,-225.41406)"
     id="g837">
    <g
       aria-label="dtasm"
       transform="translate(307.698,265)"
       style="font-weight:900;font-size:72px;font-family:'Siemens Slab SC', 'Siemens Slab SC_MSFontService', sans-serif"
       id="text835">
      <path
         d="M 7.4179687,-6.3984375 V -32.414062 L 2.7070313,-32.625 v -6.1875 H 18.316406 q 6.011719,0 9.878906,0.949219 6.609375,1.652344 9.738282,7.207031 2.53125,4.5 2.53125,11.179688 0,11.9531245 -7.488282,16.5585932 -3.585937,2.2148438 -9.527343,2.74218755 Q 21.234375,0 17.71875,0 H 2.7070313 v -6.1523437 z m 8.2617193,0.1054688 H 18 q 6.117187,0 9.070312,-2.1093751 2.460938,-1.7226562 3.691407,-5.1328122 0.984375,-2.707031 0.984375,-5.90625 0,-4.570313 -1.792969,-8.085938 -1.898438,-3.691406 -6.082031,-4.570312 -2.003907,-0.386719 -6.046875,-0.386719 h -2.144531 z"
         style="font-weight:900;font-size:72px;font-family:'Siemens Slab SC', 'Siemens Slab SC_MSFontService', sans-serif"
         id="path845"
         inkscape:connector-curvature="0" />
      <path
         d="M 57.867187,-6.3984375 V -32.519531 h -6.257812 l -0.386719,5.695312 H 44.542969 V -38.8125 h 35.191406 v 11.988281 h -6.679688 l -0.386718,-5.695312 h -6.46875 v 26.1210935 l 5.765625,0.2460938 V 0 H 52.136719 v -6.1523437 z"
         style="font-weight:900;font-size:72px;font-family:'Siemens Slab SC', 'Siemens Slab SC_MSFontService', sans-serif"
         id="path847"
         inkscape:connector-curvature="0" />
      <path
         d="M 83.232422,-6.1523437 95.712891,-38.8125 h 9.667969 l 12.79687,32.6601563 3.48047,0.1054687 V 0 h -16.24218 v -5.4492187 h 4.28906 l -2.28516,-6.4335943 H 93.673828 l -2.25,6.4335943 h 4.183594 V 0 H 79.751953 V -6.046875 Z M 105.52148,-17.4375 l -2.46093,-6.785156 -0.70313,-2.109375 q -0.84375,-2.355469 -1.86328,-5.90625 -0.914062,3.164062 -2.531249,7.980469 l -2.425782,6.820312 z"
         style="font-weight:900;font-size:72px;font-family:'Siemens Slab SC', 'Siemens Slab SC_MSFontService', sans-serif"
         id="path849"
         inkscape:connector-curvature="0" />
      <path
         d="M 125.33203,-1.6523437 V -11.8125 h 6.78516 l 0.45703,4.8867188 q 3.375,1.4414062 6.39844,1.4414062 2.88281,0 4.78125,-1.40625 1.72265,-1.265625 1.72265,-3.480469 0,-1.898437 -1.4414,-2.953125 -1.23047,-0.878906 -6.57422,-2.917968 -6.22266,-2.390625 -8.50782,-4.078125 -3.51562,-2.601563 -3.51562,-7.558594 0,-6.117188 4.46484,-9.105469 3.86719,-2.601562 10.3711,-2.601562 5.51953,0 12.16406,2.003906 v 10.441406 h -6.78516 l -0.45703,-5.027344 q -2.32031,-1.125 -5.09765,-1.125 -2.63672,0 -4.28907,1.160157 -1.72265,1.195312 -1.72265,3.375 0,1.863281 1.51172,2.953125 1.33593,0.949218 5.80078,2.636718 5.34375,1.96875 6.67968,2.636719 3.72657,1.828125 5.02735,4.359375 1.05469,2.109375 1.05469,4.957031 0,6.292969 -4.42969,9.2812503 -4.04297,2.74218745 -10.86328,2.74218745 -7.17188,0 -13.53516,-2.46093745 z"
         style="font-weight:900;font-size:72px;font-family:'Siemens Slab SC', 'Siemens Slab SC_MSFontService', sans-serif"
         id="path851"
         inkscape:connector-curvature="0" />
      <path
         d="M 164.91797,-6.3984375 V -32.414062 L 160.20703,-32.625 v -6.1875 h 16.91016 l 6.39843,18.386719 q 1.89844,6.082031 3.55079,12.6562498 2.03906,-7.3828128 4.07812,-13.5351558 l 6.15234,-17.507813 h 16.76954 v 6.1875 l -4.71094,0.210938 V -6.3984375 L 214.06641,-6.1875 V 0 h -16.52344 v -5.6601562 l 3.97265,-0.070312 V -31.816406 q -0.98437,4.148437 -3.19921,10.828125 L 191.17969,0 h -8.50782 l -7.24218,-21.199219 -1.23047,-3.585937 -0.8086,-2.742188 q -0.73828,-2.320312 -1.23046,-4.289062 v 26.0859373 l 4.00781,0.070312 V 0 h -15.96094 v -6.1875 z"
         style="font-weight:900;font-size:72px;font-family:'Siemens Slab SC', 'Siemens Slab SC_MSFontService', sans-serif"
         id="path853"
         inkscape:connector-curvature="0" />
    </g>
  </g>
</svg>
