<?xml version="1.0" encoding="UTF-8" standalone="no"?>
<svg
   xmlns:dc="http://purl.org/dc/elements/1.1/"
   xmlns:cc="http://creativecommons.org/ns#"
   xmlns:rdf="http://www.w3.org/1999/02/22-rdf-syntax-ns#"
   xmlns:svg="http://www.w3.org/2000/svg"
   xmlns="http://www.w3.org/2000/svg"
   xmlns:sodipodi="http://sodipodi.sourceforge.net/DTD/sodipodi-0.dtd"
   xmlns:inkscape="http://www.inkscape.org/namespaces/inkscape"
   width="214.75391"
   height="43.789062"
   overflow="hidden"
   version="1.1"
   id="svg839"
   sodipodi:docname="dtasm.svg"
   style="overflow:hidden"
   inkscape:version="1.0.2-2 (e86c870879, 2021-01-15)">
  <metadata
     id="metadata843">
    <rdf:RDF>
      <cc:Work
         rdf:about="">
        <dc:format>image/svg+xml</dc:format>
        <dc:type
           rdf:resource="http://purl.org/dc/dcmitype/StillImage" />
        <dc:title></dc:title>
      </cc:Work>
    </rdf:RDF>
  </metadata>
  <sodipodi:namedview
     pagecolor="#ffffff"
     bordercolor="#666666"
     borderopacity="1"
     objecttolerance="10"
     gridtolerance="10"
     guidetolerance="10"
     inkscape:pageopacity="0"
     inkscape:pageshadow="2"
     inkscape:window-width="1920"
     inkscape:window-height="1017"
     id="namedview841"
     showgrid="false"
     fit-margin-top="0"
     fit-margin-left="0"
     fit-margin-right="0"
     fit-margin-bottom="0"
     inkscape:zoom="7.5377781"
     inkscape:cx="108.43041"
     inkscape:cy="-3.3860088"
     inkscape:current-layer="text835"
     inkscape:document-rotation="0"
     inkscape:window-x="-8"
     inkscape:window-y="-8"
     inkscape:window-maximized="1" />
  <defs
     id="defs833">
    <inkscape:path-effect
       effect="skeletal"
       id="path-effect1633"
       is_visible="true"
       lpeversion="1"
       pattern="M 0.13617096,-45.71315 H 1.136171"
       copytype="single_stretched"
       prop_scale="1"
       scale_y_rel="false"
       spacing="0"
       normal_offset="0"
       tang_offset="0"
       prop_units="false"
       vertical_pattern="false"
       hide_knot="false"
       fuse_tolerance="0" />
    <inkscape:path-effect
       effect="skeletal"
       id="path-effect17"
       is_visible="true"
       lpeversion="1"
       pattern="M 0,0 H 1"
       copytype="single_stretched"
       prop_scale="1"
       scale_y_rel="false"
       spacing="0"
       normal_offset="0"
       tang_offset="0"
       prop_units="false"
       vertical_pattern="false"
       hide_knot="false"
       fuse_tolerance="0" />
    <clipPath
       id="clip0">
      <rect
         x="264"
         y="174"
         width="315"
         height="225"
         id="rect830" />
    </clipPath>
  </defs>
  <g
     clip-path="url(#clip0)"
     transform="translate(-308.77554,-223.66074)"
     id="g837">
    <g
       aria-label="dtasm"
       transform="translate(307.698,265)"
       style="font-weight:900;font-size:72px;font-family:'Siemens Slab SC', 'Siemens Slab SC_MSFontService', sans-serif"
       id="text835">
      <path
         id="path853-6"
         style="font-weight:900;font-size:72px;font-family:'Siemens Slab SC', 'Siemens Slab SC_MSFontService', sans-serif;overflow:hidden;fill:#ffffff"
         sodipodi:type="inkscape:offset"
         inkscape:radius="0.70336682"
         inkscape:original="M 140.41016 -86.292969 C 135.9416 -86.292969 132.27676 -85.401948 129.48438 -83.523438 C 126.24795 -81.356716 124.58008 -77.911337 124.58008 -73.591797 C 124.58008 -70.051982 125.91151 -67.148423 128.49805 -65.234375 A 0.99468521 0.99468521 0 0 0 128.49805 -65.232422 C 130.18798 -63.984473 133.05671 -62.634573 137.24023 -61.027344 A 0.99468521 0.99468521 0 0 0 137.24219 -61.025391 C 140.77952 -59.675619 143.0202 -58.635113 143.58594 -58.232422 C 144.31553 -57.697695 144.61914 -57.096724 144.61914 -56.083984 C 144.61914 -54.865279 144.22613 -54.084145 143.30078 -53.404297 A 0.99468521 0.99468521 0 0 0 143.29883 -53.402344 C 142.2267 -52.608171 140.86952 -52.191406 139.10938 -52.191406 C 137.41263 -52.191406 135.58166 -52.610831 133.64062 -53.375 L 133.24414 -57.617188 A 0.99468521 0.99468521 0 0 0 132.25391 -58.519531 L 125.46875 -58.519531 A 0.99468521 0.99468521 0 0 0 124.47461 -57.525391 L 124.47461 -47.365234 A 0.99468521 0.99468521 0 0 0 125.10938 -46.4375 C 129.4688 -44.751532 134.10889 -43.910156 139.00391 -43.910156 C 143.68298 -43.910156 147.51374 -44.849247 150.42383 -46.822266 L 150.42578 -46.824219 C 153.64568 -48.997541 155.29102 -52.500134 155.29102 -56.927734 C 155.29102 -58.948963 154.91404 -60.763707 154.13086 -62.330078 A 0.99468521 0.99468521 0 0 0 154.12695 -62.339844 C 153.12886 -64.282065 151.26195 -65.855025 148.66016 -67.132812 L 148.65625 -67.134766 C 147.64119 -67.642013 145.44855 -68.498176 141.88672 -69.810547 L 141.87891 -69.814453 C 138.93978 -70.925812 137.00844 -71.833553 136.31641 -72.324219 L 136.31445 -72.326172 C 135.52667 -72.894941 135.2168 -73.498562 135.2168 -74.470703 C 135.2168 -75.661813 135.59592 -76.393844 136.51172 -77.029297 A 0.99468521 0.99468521 0 0 0 136.51758 -77.03125 C 137.41553 -77.661725 138.62243 -78.011719 140.23438 -78.011719 C 141.75773 -78.011719 143.12341 -77.697275 144.39844 -77.160156 L 144.79883 -72.763672 A 0.99468521 0.99468521 0 0 0 145.78906 -71.859375 L 152.57422 -71.859375 A 0.99468521 0.99468521 0 0 0 153.56836 -72.853516 L 153.56836 -83.294922 A 0.99468521 0.99468521 0 0 0 152.86133 -84.248047 C 148.35875 -85.605966 144.2102 -86.292969 140.41016 -86.292969 z M 2.84375 -85.519531 A 0.99468521 0.99468521 0 0 0 1.8496094 -84.525391 L 1.8496094 -78.337891 A 0.99468521 0.99468521 0 0 0 2.7988281 -77.34375 L 6.5605469 -77.175781 L 6.5605469 -53.054688 L 2.7910156 -52.859375 A 0.99468521 0.99468521 0 0 0 1.8496094 -51.865234 L 1.8496094 -45.712891 A 0.99468521 0.99468521 0 0 0 2.84375 -44.71875 L 17.855469 -44.71875 C 20.215795 -44.71875 22.146128 -44.776014 23.664062 -44.896484 A 0.99468521 0.99468521 0 0 0 23.673828 -44.898438 C 27.73827 -45.259186 31.065506 -46.196902 33.634766 -47.783203 L 33.636719 -47.785156 C 38.954359 -51.056935 41.595703 -57.014243 41.595703 -65.189453 C 41.595703 -69.76821 40.728092 -73.674147 38.9375 -76.857422 C 36.72529 -80.784717 33.199048 -83.384808 28.574219 -84.541016 A 0.99468521 0.99468521 0 0 0 28.568359 -84.542969 C 25.874362 -85.204224 22.513285 -85.519531 18.453125 -85.519531 L 2.84375 -85.519531 z M 44.679688 -85.519531 A 0.99468521 0.99468521 0 0 0 43.685547 -84.525391 L 43.685547 -72.537109 A 0.99468521 0.99468521 0 0 0 44.679688 -71.542969 L 51.359375 -71.542969 A 0.99468521 0.99468521 0 0 0 52.351562 -72.470703 L 52.675781 -77.238281 L 57.009766 -77.238281 L 57.009766 -53.064453 L 52.230469 -52.859375 A 0.99468521 0.99468521 0 0 0 51.279297 -51.865234 L 51.279297 -45.712891 A 0.99468521 0.99468521 0 0 0 52.273438 -44.71875 L 72.101562 -44.71875 A 0.99468521 0.99468521 0 0 0 73.095703 -45.712891 L 73.095703 -51.865234 A 0.99468521 0.99468521 0 0 0 72.144531 -52.859375 L 67.330078 -53.064453 L 67.330078 -77.238281 L 71.875 -77.238281 L 72.199219 -72.470703 A 0.99468521 0.99468521 0 0 0 73.191406 -71.542969 L 79.871094 -71.542969 A 0.99468521 0.99468521 0 0 0 80.865234 -72.537109 L 80.865234 -84.525391 A 0.99468521 0.99468521 0 0 0 79.871094 -85.519531 L 44.679688 -85.519531 z M 95.849609 -85.519531 A 0.99468521 0.99468521 0 0 0 94.919922 -84.880859 L 82.675781 -52.839844 L 79.859375 -52.753906 A 0.99468521 0.99468521 0 0 0 78.894531 -51.759766 L 78.894531 -45.712891 A 0.99468521 0.99468521 0 0 0 79.888672 -44.71875 L 95.744141 -44.71875 A 0.99468521 0.99468521 0 0 0 96.738281 -45.712891 L 96.738281 -51.162109 A 0.99468521 0.99468521 0 0 0 95.744141 -52.15625 L 92.962891 -52.15625 L 94.515625 -56.601562 L 106.85352 -56.601562 L 108.43359 -52.15625 L 105.55273 -52.15625 A 0.99468521 0.99468521 0 0 0 104.55859 -51.162109 L 104.55859 -45.712891 A 0.99468521 0.99468521 0 0 0 105.55273 -44.71875 L 121.79492 -44.71875 A 0.99468521 0.99468521 0 0 0 122.78906 -45.712891 L 122.78906 -51.759766 A 0.99468521 0.99468521 0 0 0 121.82422 -52.753906 L 119 -52.839844 L 106.44336 -84.888672 A 0.99468521 0.99468521 0 0 0 105.51758 -85.519531 L 95.849609 -85.519531 z M 160.34375 -85.519531 A 0.99468521 0.99468521 0 0 0 159.34961 -84.525391 L 159.34961 -78.337891 A 0.99468521 0.99468521 0 0 0 160.29883 -77.34375 L 164.06055 -77.175781 L 164.06055 -53.0625 L 160.29883 -52.894531 A 0.99468521 0.99468521 0 0 0 159.34961 -51.900391 L 159.34961 -45.712891 A 0.99468521 0.99468521 0 0 0 160.34375 -44.71875 L 176.30469 -44.71875 A 0.99468521 0.99468521 0 0 0 177.29883 -45.712891 L 177.29883 -51.373047 A 0.99468521 0.99468521 0 0 0 176.32227 -52.367188 L 173.29102 -52.419922 L 173.29102 -70.527344 L 173.38281 -70.216797 A 0.99468521 0.99468521 0 0 0 173.39453 -70.175781 L 174.625 -66.589844 L 181.86719 -45.390625 A 0.99468521 0.99468521 0 0 0 182.80859 -44.71875 L 191.31641 -44.71875 A 0.99468521 0.99468521 0 0 0 192.25781 -45.392578 L 199.39453 -66.380859 A 0.99468521 0.99468521 0 0 0 199.39648 -66.388672 C 199.97673 -68.138634 200.20305 -69.166359 200.6582 -70.660156 L 200.6582 -52.419922 L 197.66211 -52.367188 A 0.99468521 0.99468521 0 0 0 196.68555 -51.373047 L 196.68555 -45.712891 A 0.99468521 0.99468521 0 0 0 197.67969 -44.71875 L 214.20312 -44.71875 A 0.99468521 0.99468521 0 0 0 215.19727 -45.712891 L 215.19727 -51.900391 A 0.99468521 0.99468521 0 0 0 214.24805 -52.894531 L 210.48633 -53.0625 L 210.48633 -77.175781 L 214.24805 -77.34375 A 0.99468521 0.99468521 0 0 0 215.19727 -78.337891 L 215.19727 -84.525391 A 0.99468521 0.99468521 0 0 0 214.20312 -85.519531 L 197.43359 -85.519531 A 0.99468521 0.99468521 0 0 0 196.49609 -84.855469 L 190.34375 -67.347656 A 0.99468521 0.99468521 0 0 0 190.33789 -67.330078 C 189.30355 -64.209219 188.26915 -60.631334 187.23633 -57.042969 C 186.38726 -60.231172 185.54114 -63.425433 184.60156 -66.435547 A 0.99468521 0.99468521 0 0 0 184.5918 -66.464844 L 178.19336 -84.851562 A 0.99468521 0.99468521 0 0 0 177.25391 -85.519531 L 160.34375 -85.519531 z M 16.810547 -77.203125 L 17.960938 -77.203125 C 20.620116 -77.203125 22.596274 -77.067497 23.810547 -76.833984 C 26.34984 -76.29821 28.062086 -75.007639 29.205078 -72.785156 C 30.319867 -70.597666 30.888672 -68.069431 30.888672 -65.154297 C 30.888672 -63.123492 30.576137 -61.274318 29.962891 -59.587891 A 0.99468521 0.99468521 0 0 0 29.962891 -59.585938 C 29.196278 -57.461328 28.088553 -55.945971 26.636719 -54.929688 A 0.99468521 0.99468521 0 0 0 26.628906 -54.923828 C 24.924464 -53.706369 22.100523 -53 18.136719 -53 L 16.810547 -53 L 16.810547 -77.203125 z M 100.62891 -74.65625 C 100.9384 -73.676499 101.27551 -72.499248 101.55859 -71.708984 L 102.25391 -69.621094 A 0.99468521 0.99468521 0 0 0 102.26172 -69.595703 L 104.23828 -64.144531 L 97.083984 -64.144531 L 99.037109 -69.636719 A 0.99468521 0.99468521 0 0 0 99.042969 -69.654297 C 99.717086 -71.66199 100.13608 -73.073287 100.62891 -74.65625 z "
         d="m 140.41016,-86.996094 c -4.56206,0 -8.37496,0.908567 -11.31836,2.888672 -3.42921,2.296401 -5.21485,6.015578 -5.21485,10.515625 0,3.647355 1.40089,6.742965 4.06836,8.792969 a 0.70343715,0.70343715 0 0 0 0.13477,0.132812 c 1.78874,1.320916 4.67588,2.662279 8.83594,4.263672 0.0101,0.0039 0.0153,0.0078 0.0254,0.01172 a 0.70343715,0.70343715 0 0 0 0.0391,0.01758 c 0.003,0.0011 0.005,8.47e-4 0.008,0.002 a 0.70343715,0.70343715 0 0 0 0.004,0.002 c 1.75863,0.67106 3.19274,1.266152 4.25,1.738282 1.05512,0.471177 1.77106,0.854959 1.93164,0.96875 0.59715,0.438694 0.74219,0.708731 0.74219,1.578125 0,1.067489 -0.23649,1.529377 -1.03125,2.113281 a 0.70343715,0.70343715 0 0 0 -0.006,0.0059 c -0.93825,0.694275 -2.12162,1.070313 -3.76953,1.070313 -1.4644,0 -3.08534,-0.370925 -4.81055,-1.009766 l -0.35352,-3.777344 v -0.002 c -0.0786,-0.832004 -0.85561,-1.538928 -1.6914,-1.539062 h -6.78516 c -0.88848,4.87e-4 -1.69678,0.808788 -1.69727,1.697265 v 10.160157 c -3e-4,0.679791 0.45026,1.33801 1.08399,1.583984 4.4426,1.718137 9.17282,2.574219 14.14844,2.574219 4.77318,0 8.75286,-0.957467 11.81445,-3.033203 a 0.70343715,0.70343715 0 0 0 0.10352,-0.08594 l -0.10352,0.08398 c 3.41826,-2.307211 5.17578,-6.083694 5.17578,-10.685546 0,-2.108686 -0.39439,-4.036814 -1.23437,-5.716797 a 0.70343715,0.70343715 0 0 0 -0.008,-0.01758 c -1.08993,-2.120938 -3.09216,-3.78016 -5.77734,-5.09961 l -0.004,-0.002 c -1.09141,-0.5454 -3.27173,-1.390789 -6.82226,-2.699219 -0.009,-0.0034 -0.008,-0.0044 -0.0176,-0.0078 a 0.70343715,0.70343715 0 0 0 -0.004,-0.002 c -2.91381,-1.101786 -4.87642,-2.052971 -5.40039,-2.423828 -0.66726,-0.481758 -0.80664,-0.751544 -0.80664,-1.574219 0,-1.03738 0.21196,-1.433186 0.98633,-1.972656 a 0.70343715,0.70343715 0 0 0 0.0156,-0.01172 c 0.75556,-0.530503 1.80236,-0.853516 3.3125,-0.853516 1.27902,0 2.41711,0.263099 3.50585,0.675782 l 0.35743,3.933593 c 0.0761,0.833935 0.854,1.542683 1.6914,1.542969 h 6.78516 c 0.88848,-4.87e-4 1.69678,-0.808788 1.69726,-1.697266 v -10.441406 c 6.9e-4,-0.723574 -0.51437,-1.417701 -1.20703,-1.626953 -4.55414,-1.373469 -8.76948,-2.074219 -12.65429,-2.074219 z m 14.34961,24.351563 0.0254,0.05664 c 0.038,0.100468 -0.0502,-0.09378 -0.0254,-0.05664 z M 2.84375,-86.222656 c -0.8884778,4.86e-4 -1.6967788,0.808788 -1.6972656,1.697265 v 6.1875 c -4.301e-4,0.863499 0.7584977,1.657796 1.6210937,1.697266 l 3.0898438,0.136719 v 22.78125 L 2.7539062,-53.5625 c -0.858035,0.04603 -1.6081852,0.837997 -1.6074218,1.697266 v 6.152343 c 4.859e-4,0.888479 0.8087872,1.69678 1.6972656,1.697266 h 15.011719 c 2.371702,0 4.315989,-0.05689 5.863281,-0.179687 a 0.70343715,0.70343715 0 0 0 0.01758,-0.002 l 0.01172,-0.002 c 4.131979,-0.368082 7.563836,-1.324231 10.255859,-2.986328 a 0.70343715,0.70343715 0 0 0 0.01172,-0.0078 l 0.01172,-0.0078 a 0.70343715,0.70343715 0 0 0 0.05078,-0.03711 c 5.501893,-3.42738 8.220703,-9.663102 8.220703,-17.951172 0,-4.667609 -0.88452,-8.700735 -2.748047,-12.013672 -2.30392,-4.090106 -6.022716,-6.823549 -10.80664,-8.019531 l 0.04492,0.01172 a 0.70343715,0.70343715 0 0 0 -0.05273,-0.01562 C 25.96107,-85.907764 22.5497,-86.222656 18.453125,-86.222656 Z m 41.835938,0 c -0.888479,4.86e-4 -1.696779,0.808787 -1.697266,1.697265 v 11.988282 c 4.87e-4,0.888478 0.808787,1.696779 1.697266,1.697265 h 6.679687 c 0.850833,-2.07e-4 1.636091,-0.73508 1.693359,-1.583984 l 0.279297,-4.111328 h 2.97461 v 22.796875 l -4.105469,0.175781 a 0.70343715,0.70343715 0 0 0 -0.002,0 c -0.863734,0.03782 -1.623402,0.832704 -1.623047,1.697266 v 6.152343 c 4.86e-4,0.888479 0.808787,1.69678 1.697266,1.697266 h 19.828124 c 0.888479,-4.86e-4 1.69678,-0.808787 1.697266,-1.697266 v -6.152343 c 3.55e-4,-0.864562 -0.759313,-1.659445 -1.623047,-1.697266 a 0.70343715,0.70343715 0 0 0 -0.002,0 l -4.140625,-0.175781 v -22.796875 h 3.185547 l 0.279297,4.111328 c 0.05727,0.848904 0.842526,1.583777 1.693359,1.583984 h 6.679688 c 0.888477,-4.87e-4 1.696779,-0.808788 1.697265,-1.697265 v -11.988282 c -4.86e-4,-0.888477 -0.808788,-1.696778 -1.697265,-1.697265 z m 51.169921,0 c -0.682425,-6.15e-4 -1.341687,0.452625 -1.585937,1.089844 l -12.078125,31.603515 -2.347656,0.07227 c -0.871667,0.02616 -1.646399,0.825206 -1.646485,1.697265 v 6.046875 c 4.86e-4,0.888479 0.808787,1.69678 1.697266,1.697266 h 15.855469 c 0.888478,-4.87e-4 1.696779,-0.808788 1.697265,-1.697266 v -5.449218 c -4.86e-4,-0.888478 -0.808787,-1.696779 -1.697265,-1.697266 h -1.791016 l 1.0625,-3.039063 h 11.341795 l 1.08008,3.039063 h -1.88477 c -0.88847,4.87e-4 -1.69678,0.808788 -1.69726,1.697266 v 5.449218 c 4.8e-4,0.888478 0.80879,1.696779 1.69726,1.697266 h 16.24219 c 0.88848,-4.87e-4 1.69678,-0.808788 1.69727,-1.697266 v -6.046875 c -9e-5,-0.872056 -0.77482,-1.671099 -1.64649,-1.697265 l -2.35937,-0.07227 -12.38867,-31.615234 a 0.70343715,0.70343715 0 0 0 0,-0.002 c -0.24769,-0.630236 -0.90292,-1.076187 -1.58008,-1.076172 z m 64.494141,0 c -0.88848,4.87e-4 -1.69678,0.808788 -1.69727,1.697265 v 6.1875 c -4.3e-4,0.8635 0.7585,1.657797 1.6211,1.697266 l 3.08984,0.136719 v 22.769531 l -3.08984,0.136719 c -0.8626,0.03947 -1.62152,0.833767 -1.6211,1.697265 v 6.1875 c 4.9e-4,0.888478 0.80879,1.696779 1.69727,1.697266 h 15.96094 c 0.88848,-4.87e-4 1.69678,-0.808788 1.69726,-1.697266 v -5.660156 c -3.3e-4,-0.878568 -0.78759,-1.681256 -1.66601,-1.697265 a 0.70343715,0.70343715 0 0 0 -0.002,0 l -2.33984,-0.04102 v -13.146484 l 7.20703,21.09375 a 0.70343715,0.70343715 0 0 0 0,0.002 c 0.22793,0.664318 0.90509,1.146875 1.60742,1.146484 h 8.50782 c 0.70312,-8.1e-5 1.38061,-0.484849 1.60742,-1.150391 l 7.03125,-20.677734 v 12.732422 l -2.30469,0.04102 a 0.70343715,0.70343715 0 0 0 -0.002,0 c -0.87842,0.01601 -1.66568,0.818697 -1.66602,1.697265 v 5.660156 c 4.9e-4,0.888478 0.80879,1.696779 1.69727,1.697266 h 16.52343 c 0.88849,-4.78e-4 1.69678,-0.808782 1.69727,-1.697266 v -6.1875 c 4.3e-4,-0.863498 -0.7585,-1.657796 -1.62109,-1.697265 l -3.08985,-0.136719 v -22.769531 l 3.08985,-0.136719 c 0.86259,-0.03947 1.62152,-0.833766 1.62109,-1.697266 v -6.1875 c -4.9e-4,-0.888483 -0.80878,-1.696787 -1.69727,-1.697265 h -16.76953 c -0.69695,4.41e-4 -1.3699,0.475487 -1.60156,1.132812 a 0.70343715,0.70343715 0 0 0 0,0.002 l -6.15234,17.507813 a 0.70343715,0.70343715 0 0 0 -0.002,0.0039 c -0.003,0.01 -0.007,0.01926 -0.01,0.0293 -0.80602,2.432253 -1.60709,5.225719 -2.4082,7.986328 -0.64266,-2.394111 -1.27497,-4.805012 -1.98633,-7.083984 a 0.70343715,0.70343715 0 0 0 -0.002,-0.0039 c -0.005,-0.01615 -0.01,-0.03089 -0.0156,-0.04687 v -0.002 l -6.39844,-18.384765 c -0.2298,-0.660822 -0.90387,-1.140592 -1.60351,-1.140625 z M 17.513672,-76.5 h 0.447266 c 2.635261,0 4.591899,0.141096 5.716796,0.357422 2.37092,0.503167 3.8413,1.616548 4.902344,3.679687 1.058462,2.077891 1.605469,4.485938 1.605469,7.308594 0,1.958641 -0.29977,3.722805 -0.882813,5.326172 a 0.70343715,0.70343715 0 0 0 -0.002,0.0039 c -0.729434,2.021571 -1.747926,3.394057 -3.068359,4.31836 a 0.70343715,0.70343715 0 0 0 -0.01563,0.01172 c -1.510689,1.077521 -4.202313,1.791016 -8.080078,1.791016 h -0.623047 z m 83.113278,4.173828 c 0.0901,0.28243 0.18394,0.61456 0.26953,0.853516 l -0.006,-0.01367 0.69532,2.08789 c 0.002,0.0059 0.004,0.01167 0.006,0.01758 a 0.70343715,0.70343715 0 0 0 0.008,0.02539 l 1.63477,4.507813 h -5.154302 l 1.619141,-4.552735 a 0.70343715,0.70343715 0 0 0 0.0039,-0.0078 c 0.0025,-0.0072 0.0035,-0.01427 0.0059,-0.02148 0.391226,-1.165171 0.634756,-1.984625 0.917966,-2.896484 z"
         transform="translate(-0.0689429,45.656835)" />
      <path
         d="M 7.4179687,-6.3984375 V -32.414062 L 2.7070313,-32.625 l 0,-4e-6 v -6.187492 -4e-6 H 18.316406 c 3.315713,0 6.658774,0.158823 9.878902,0.949218 l 4e-6,10e-7 c 4.035407,1.008852 7.696812,3.582849 9.738282,7.207031 1.89393,3.366986 2.53125,7.316585 2.53125,11.179688 0,3.455003 -0.448425,6.968151 -1.872071,10.1162105 l -4e-6,5.5e-6 c -1.192013,2.6358594 -3.152081,4.9268818 -5.616207,6.4423772 -2.836553,1.7519892 -6.206406,2.44742986 -9.527343,2.74218755 C 21.543694,-0.02454913 19.630274,-6.3016845e-8 17.718757,0 c -2e-6,0 -5e-6,0 -7e-6,0 h -15.0117113 -7.4e-6 v -6.1523437 z m 8.2617193,0.1054688 H 18 c 3.151418,0 6.505897,-0.2776503 9.070312,-2.1093751 1.754594,-1.2282154 2.964482,-3.1181922 3.691407,-5.1328122 l 0,-2e-6 c 0.685586,-1.885359 0.984375,-3.900105 0.984375,-5.906248 0,-2.786912 -0.526802,-5.603258 -1.792969,-8.085938 -1.202255,-2.337717 -3.509434,-4.029849 -6.082027,-4.570311 l -4e-6,-10e-7 c -1.985713,-0.383208 -4.024524,-0.386719 -6.046875,-0.386719 h -2.144531 z"
         style="font-weight:900;font-size:72px;font-family:'Siemens Slab SC', 'Siemens Slab SC_MSFontService', sans-serif"
         id="path845"
         inkscape:connector-curvature="0"
         inkscape:original-d="M 7.4179687,-6.3984375 V -32.414062 L 2.7070313,-32.625 v -6.1875 H 18.316406 q 6.011719,0 9.878906,0.949219 6.609375,1.652344 9.738282,7.207031 2.53125,4.5 2.53125,11.179688 0,11.9531245 -7.488282,16.5585932 -3.585937,2.2148438 -9.527343,2.74218755 Q 21.234375,0 17.71875,0 H 2.7070313 v -6.1523437 z m 8.2617193,0.1054688 H 18 q 6.117187,0 9.070312,-2.1093751 2.460938,-1.7226562 3.691407,-5.1328122 0.984375,-2.707031 0.984375,-5.90625 0,-4.570313 -1.792969,-8.085938 -1.898438,-3.691406 -6.082031,-4.570312 -2.003907,-0.386719 -6.046875,-0.386719 h -2.144531 z"
         inkscape:path-effect="#path-effect17" />
      <path
         d="M 57.867187,-6.3984375 V -32.519531 h -6.257812 l -0.386719,5.695312 H 44.542969 V -38.8125 h 35.191406 v 11.988281 h -6.679688 l -0.386718,-5.695312 h -6.46875 v 26.1210935 l 5.765625,0.2460938 V 0 H 52.136719 v -6.1523437 z"
         style="font-weight:900;font-size:72px;font-family:'Siemens Slab SC', 'Siemens Slab SC_MSFontService', sans-serif"
         id="path847"
         inkscape:connector-curvature="0" />
      <path
         d="M 83.232422,-6.1523437 95.712891,-38.8125 h 9.667969 l 12.79687,32.6601563 3.48047,0.1054687 V 0 h -16.24218 v -5.4492187 h 4.28906 l -2.28516,-6.4335943 H 93.673828 l -2.25,6.4335943 h 4.183594 V 0 H 79.751953 V -6.046875 Z M 105.52148,-17.4375 l -2.46093,-6.785156 -0.70313,-2.109375 q -0.84375,-2.355469 -1.86328,-5.90625 -0.914062,3.164062 -2.531249,7.980469 l -2.425782,6.820312 z"
         style="font-weight:900;font-size:72px;font-family:'Siemens Slab SC', 'Siemens Slab SC_MSFontService', sans-serif"
         id="path849"
         inkscape:connector-curvature="0" />
      <path
         d="M 125.33203,-1.6523437 V -11.8125 h 6.78516 l 0.45703,4.8867188 q 3.375,1.4414062 6.39844,1.4414062 2.88281,0 4.78125,-1.40625 1.72265,-1.265625 1.72265,-3.480469 0,-1.898437 -1.4414,-2.953125 -1.23047,-0.878906 -6.57422,-2.917968 -6.22266,-2.390625 -8.50782,-4.078125 -3.51562,-2.601563 -3.51562,-7.558594 0,-6.117188 4.46484,-9.105469 3.86719,-2.601562 10.3711,-2.601562 5.51953,0 12.16406,2.003906 v 10.441406 h -6.78516 l -0.45703,-5.027344 q -2.32031,-1.125 -5.09765,-1.125 -2.63672,0 -4.28907,1.160157 -1.72265,1.195312 -1.72265,3.375 0,1.863281 1.51172,2.953125 1.33593,0.949218 5.80078,2.636718 5.34375,1.96875 6.67968,2.636719 3.72657,1.828125 5.02735,4.359375 1.05469,2.109375 1.05469,4.957031 0,6.292969 -4.42969,9.2812503 -4.04297,2.74218745 -10.86328,2.74218745 -7.17188,0 -13.53516,-2.46093745 z"
         style="font-weight:900;font-size:72px;font-family:'Siemens Slab SC', 'Siemens Slab SC_MSFontService', sans-serif"
         id="path851"
         inkscape:connector-curvature="0" />
      <path
         d="M 164.91797,-6.3984375 V -32.414062 L 160.20703,-32.625 v -6.1875 h 16.91016 l 6.39843,18.386719 q 1.89844,6.082031 3.55079,12.6562498 2.03906,-7.3828128 4.07812,-13.5351558 l 6.15234,-17.507813 h 16.76954 v 6.1875 l -4.71094,0.210938 V -6.3984375 L 214.06641,-6.1875 V 0 h -16.52344 v -5.6601562 l 3.97265,-0.070312 V -31.816406 q -0.98437,4.148437 -3.19921,10.828125 L 191.17969,0 h -8.50782 l -7.24218,-21.199219 -1.23047,-3.585937 -0.8086,-2.742188 q -0.73828,-2.320312 -1.23046,-4.289062 v 26.0859373 l 4.00781,0.070312 V 0 h -15.96094 v -6.1875 z"
         style="font-weight:900;font-size:72px;font-family:'Siemens Slab SC', 'Siemens Slab SC_MSFontService', sans-serif"
         id="path853"
         inkscape:connector-curvature="0" />
    </g>
  </g>
</svg>
